<svg xmlns="http://www.w3.org/2000/svg">
  <symbol viewBox="0 0 27 34" id="logo">
    <path fill-rule="evenodd" clip-rule="evenodd" d="M13.6 0h-.1L0 1.4v24.7l13.5 8 13.4-8V1.4L13.6 0ZM25 12.1 13.5 5.3v-.1h-.1l-.1-.1v.1L1.9 12.1v-9l11.5-1.2L25 3.1v9ZM13.4 6.8l11.5 6.7-4.5 2.6-7.1-4.2v1.4l5.9 3.5-.9.5-5-3v1.4l3.8 2.3-.8.5-3-1.8v1.4l1.9 1.1-1.8 1.1L2 13.6l11.4-6.8ZM1.9 15.1l11.4 6.8v1l-7.9-4.7v1.4l8 4.8v1.1l-8-4.7v1.4l8 4.8 8.1-4.9v-5.2l3.4-2v10l-11.5 6.9L1.9 25v-9.9Z"/>
  </symbol>
  <symbol viewBox="0 0 48 55" id="video-button">
    <path fill-rule="evenodd" clip-rule="evenodd" d="M48 27.0193L0 54.0193L2.42273e-06 0.0192871L48 27.0193Z"/>
  </symbol>
  <symbol viewBox="0 0 23 21" id="like">
    <path fill-rule="evenodd" clip-rule="evenodd" d="m13 3.8-.7 3-.6 2.6h9.1v2.2l-3 7.3H8.4V8.4L13 3.8ZM2 10.5v8.4-8.4ZM13.9 0 6.9 7c-.4.2-.6.8-.6 1.4v10.5c0 1.2 1 2.1 2 2.1h9.5a2 2 0 0 0 1.9-1.3l3-7.4c.2-.2.2-.5.2-.8v-2h.1c0-1.2-1-2.2-2-2.2h-6.7l1-4.8v-.3c0-.4-.1-.8-.4-1.2l-1.1-1ZM4.2 8.4H0V21h4.2V8.4Z"/>
  </symbol>
  <symbol viewBox="0 0 76 68" id="icon-burger">
    <path d="M71.7113 45.3324H4.28871C1.89501 45.3324 0 47.3034 0 49.57V53.0192C0 55.2858 1.89501 57.1582 4.28871 57.1582H5.28609V58.1437C5.28609 63.5639 9.77428 67.9 15.1601 67.9H60.8399C66.3255 67.9 70.7139 63.4653 70.7139 58.1437V57.1582H71.7113C74.0053 57.1582 76 55.2858 76 52.9206V49.4714C76 47.3034 74.105 45.3324 71.7113 45.3324ZM67.8215 58.1437C67.8215 61.8886 64.7297 64.9436 60.9396 64.9436H15.0604C11.2703 64.9436 8.17848 61.8886 8.17848 58.1437V57.1582H67.8215V58.1437ZM73.0079 52.9206C73.0079 53.6105 72.4095 54.2018 71.7113 54.2018H4.28871C3.59055 54.2018 2.99213 53.6105 2.99213 52.9206V49.4714C2.99213 48.8801 3.59055 48.2889 4.28871 48.2889H71.811C72.5092 48.2889 73.1076 48.8801 73.1076 49.57V52.9206H73.0079Z" fill="#81B3D2"/>
    <path d="M16.1575 37.3496L21.5434 41.2915L27.0289 37.3496L32.5145 41.2915L38 37.3496L43.3859 41.2915L48.8714 37.3496L54.357 41.2915L59.8426 37.3496L65.3281 41.2915L71.6116 36.6597L69.9161 34.2946L65.3281 37.5467L59.8426 33.6047L54.357 37.5467L48.8714 33.6047L43.3859 37.5467L38 33.6047L32.5145 37.5467L27.0289 33.6047L21.5434 37.5467L16.1575 33.6047L10.672 37.5467L6.08403 34.2946L4.28876 36.6597L10.672 41.2915L16.1575 37.3496Z" fill="#81B3D2"/>
    <path d="M70.7138 30.6486C70.7138 30.0573 70.8136 28.0864 70.7138 27.6922C70.0157 12.3186 55.6535 0 37.9999 0C20.3464 0 5.88444 12.3186 5.18628 27.6922C5.18628 28.0864 5.18628 30.0573 5.18628 30.6486H70.7138ZM37.9999 2.95646C53.9579 2.95646 67.1233 13.9939 67.7217 27.6922H8.17841C8.87657 13.9939 22.0419 2.95646 37.9999 2.95646Z" fill="#81B3D2"/>
    <path d="M38 16.7532C39.1017 16.7532 39.9948 15.8708 39.9948 14.7823C39.9948 13.6937 39.1017 12.8113 38 12.8113C36.8983 12.8113 36.0052 13.6937 36.0052 14.7823C36.0052 15.8708 36.8983 16.7532 38 16.7532Z" fill="#81B3D2"/>
    <path d="M30.021 11.924C31.1227 11.924 32.0157 11.0416 32.0157 9.95303C32.0157 8.86449 31.1227 7.98206 30.021 7.98206C28.9193 7.98206 28.0262 8.86449 28.0262 9.95303C28.0262 11.0416 28.9193 11.924 30.021 11.924Z" fill="#81B3D2"/>
    <path d="M45.979 11.924C47.0807 11.924 47.9738 11.0416 47.9738 9.95303C47.9738 8.86449 47.0807 7.98206 45.979 7.98206C44.8773 7.98206 43.9843 8.86449 43.9843 9.95303C43.9843 11.0416 44.8773 11.924 45.979 11.924Z" fill="#81B3D2"/>
  </symbol>
  <symbol viewBox="0 0 64 75" id="icon-gift">
    <path d="M61.1556 22.1167H61.054H36.3683C50.1841 15.3189 51.3016 11.0202 50.7937 8.62098C49.6762 4.72221 45.1048 1.72316 40.8381 3.32266C35.2508 5.42199 33.727 13.6194 32.2032 19.5175C30.273 13.5194 28.4444 5.92183 24.0762 2.02307C22.8571 0.923414 21.0286 -0.176239 18.2857 0.0236982C14.2222 0.423572 8.43175 5.32202 10.8698 10.8203C13.1048 16.1186 20.5206 19.5175 25.4984 22.2167H2.84444C1.21905 22.2167 0 23.5163 0 25.0158V36.2123C0 37.8118 1.32063 39.0114 2.84444 39.0114H3.14921V75H61.054V39.0114H61.1556C62.781 39.0114 64 37.7118 64 36.2123V25.0158C64 23.4163 62.6794 22.1167 61.1556 22.1167ZM42.4635 5.82187C44.5968 5.52196 47.4413 7.12146 47.746 9.02085C48.1524 11.72 44.3937 14.2192 42.6667 15.3189C40.127 17.0183 37.6889 17.918 35.3524 19.3176C36.1651 15.6188 37.8921 6.42168 42.4635 5.82187ZM19.5048 15.6188C17.2698 14.1192 13.0032 11.2202 13.1048 7.9212C13.2063 4.32234 18.8952 1.42326 21.9429 4.1224C25.8032 7.42136 27.6317 15.1189 29.054 20.5172C25.8032 18.9177 22.7556 17.7181 19.5048 15.6188ZM25.4984 72.0009H6.09524V39.0114H25.4984V72.0009ZM25.4984 36.0123H3.04762V25.1158H25.4984V36.0123ZM35.6571 72.0009H28.4444V25.1158H35.6571V72.0009ZM58.0064 72.0009H38.7048V39.0114H58.1079V72.0009H58.0064ZM60.9524 36.0123H38.7048V25.1158H60.9524V36.0123Z" fill="#81B3D2"/>
  </symbol>
  <symbol viewBox="0 0 75 72" id="icon-house">
    <path d="M29.6185 64.9389H45.6827V41.1709H29.6185V64.9389ZM42.7711 62.0549H32.5301V44.0549H42.6707V62.0549H42.7711Z" fill="#81B3D2"/>
    <path d="M72.8916 39.1823L75 37.0939L65.0602 27.2486V0.39779H51.2048V13.5249L37.4498 0L0 37.1934L2.10843 39.2818L9.93976 31.5249V69.116H6.0241V72H70.1807V69.116H65.0602V31.4254L72.8916 39.1823ZM54.1165 3.38122H62.0482V24.3646L54.1165 16.5083V3.38122ZM62.1486 69.0166H12.9518V28.5414L37.4498 4.1768L62.0482 28.5414V69.0166H62.1486Z" fill="#81B3D2"/>
    <path d="M29.9197 27.0491C29.9197 31.3253 33.4338 34.806 37.6507 34.806C41.9679 34.806 45.482 31.3253 45.482 27.0491C45.482 22.7728 41.9679 19.3916 37.6507 19.3916C33.3334 19.3916 29.9197 22.7728 29.9197 27.0491ZM37.6507 22.0767C40.3615 22.0767 42.6707 24.2645 42.6707 27.0491C42.6707 29.7341 40.4619 32.0214 37.6507 32.0214C34.9398 32.0214 32.6306 29.8336 32.6306 27.0491C32.6306 24.364 34.9398 22.0767 37.6507 22.0767Z" fill="#81B3D2"/>
    <path d="M19.9799 41.1709H16.9679V45.0493H19.9799V41.1709Z" fill="#81B3D2"/>
    <path d="M25.9036 41.1709H22.8915V45.0493H25.9036V41.1709Z" fill="#81B3D2"/>
    <path d="M19.9799 47.1387H16.9679V51.0171H19.9799V47.1387Z" fill="#81B3D2"/>
    <path d="M25.9036 47.1387H22.8915V51.0171H25.9036V47.1387Z" fill="#81B3D2"/>
    <path d="M52.008 41.1709H48.996V45.0493H52.008V41.1709Z" fill="#81B3D2"/>
    <path d="M58.0321 41.1709H55.0201V45.0493H58.0321V41.1709Z" fill="#81B3D2"/>
    <path d="M52.008 47.1387H48.996V51.0171H52.008V47.1387Z" fill="#81B3D2"/>
    <path d="M58.0321 47.1387H55.0201V51.0171H58.0321V47.1387Z" fill="#81B3D2"/>
  </symbol>
  <symbol viewBox="0 0 24 24" id="telegram">
    <path d="M22.4393 4.62225L19.2705 19.566C19.0313 20.6205 18.408 20.883 17.5223 20.3865L12.6938 16.8285L10.3643 19.0695C10.1063 19.3275 9.891 19.5428 9.39375 19.5428L9.741 14.6258L18.6893 6.54C19.0785 6.1935 18.6045 6.00075 18.0848 6.348L7.02225 13.314L2.25976 11.823C1.22401 11.4998 1.20526 10.7873 2.47576 10.29L21.1035 3.11325C21.966 2.79 22.7205 3.30525 22.4393 4.623V4.62225Z" fill="white"/>
  </symbol>
  <symbol viewBox="0 0 24 24" id="vk">
    <g clip-path="url(#clip0_38042_442)">
    <path fill-rule="evenodd" clip-rule="evenodd" d="M23.45 5.948C23.616 5.402 23.45 5 22.655 5H20.03C19.362 5 19.054 5.347 18.887 5.73C18.887 5.73 17.552 8.926 15.661 11.002C15.049 11.604 14.771 11.795 14.437 11.795C14.27 11.795 14.019 11.604 14.019 11.057V5.948C14.019 5.292 13.835 5 13.279 5H9.151C8.734 5 8.483 5.304 8.483 5.593C8.483 6.214 9.429 6.358 9.526 8.106V11.904C9.526 12.737 9.373 12.888 9.039 12.888C8.149 12.888 5.984 9.677 4.699 6.003C4.45 5.288 4.198 5 3.527 5H0.9C0.15 5 0 5.347 0 5.73C0 6.412 0.89 9.8 4.145 14.281C6.315 17.341 9.37 19 12.153 19C13.822 19 14.028 18.632 14.028 17.997V15.684C14.028 14.947 14.186 14.8 14.715 14.8C15.105 14.8 15.772 14.992 17.33 16.467C19.11 18.216 19.403 19 20.405 19H23.03C23.78 19 24.156 18.632 23.94 17.904C23.702 17.18 22.852 16.129 21.725 14.882C21.113 14.172 20.195 13.407 19.916 13.024C19.527 12.533 19.638 12.314 19.916 11.877C19.916 11.877 23.116 7.451 23.449 5.948H23.45Z" fill="white"/>
    </g>
    <defs>
    <clipPath id="clip0_38042_442">
    <rect width="24" height="24" fill="white"/>
    </clipPath>
    </defs>
  </symbol>
  <symbol viewBox="0 0 24 24" id="youtube">
    <path d="M19.1813 5H4.81331C3.30618 5 2 6.3 2 7.8V16.1C2 17.7 3.30618 19 4.81331 19H19.1813C20.7889 19 21.9946 17.7 21.9946 16.2V7.8C22.095 6.3 20.7889 5 19.1813 5ZM9.03326 15.4V8.6L15.8656 12L9.03326 15.4Z" fill="white"/>
  </symbol>
</svg>
